<?xml version="1.0" encoding="UTF-8" standalone="no"?>
<svg
   id="svg8"
   version="1.1"
   viewBox="0 0 170 170"
   height="170mm"
   width="170mm"
   sodipodi:docname="bqplot-logo.svg"
   inkscape:version="1.1.1 (3bf5ae0d25, 2021-09-20)"
   xmlns:inkscape="http://www.inkscape.org/namespaces/inkscape"
   xmlns:sodipodi="http://sodipodi.sourceforge.net/DTD/sodipodi-0.dtd"
   xmlns="http://www.w3.org/2000/svg"
   xmlns:svg="http://www.w3.org/2000/svg"
   xmlns:rdf="http://www.w3.org/1999/02/22-rdf-syntax-ns#"
   xmlns:cc="http://creativecommons.org/ns#"
   xmlns:dc="http://purl.org/dc/elements/1.1/">
  <sodipodi:namedview
     pagecolor="#ffffff"
     bordercolor="#666666"
     borderopacity="1"
     objecttolerance="10"
     gridtolerance="10"
     guidetolerance="10"
     inkscape:pageopacity="0"
     inkscape:pageshadow="2"
     inkscape:window-width="3840"
     inkscape:window-height="2101"
     id="namedview44"
     showgrid="false"
     inkscape:zoom="1.4692157"
     inkscape:cx="252.856"
     inkscape:cy="308.32777"
     inkscape:window-x="0"
     inkscape:window-y="28"
     inkscape:window-maximized="1"
     inkscape:current-layer="g1300"
     inkscape:pagecheckerboard="0"
     inkscape:document-units="mm" />
  <defs
     id="defs2">
    <clipPath
       clipPathUnits="userSpaceOnUse"
       id="clipPath1573">
      <circle
         style="fill:#0e0e0e;fill-opacity:0.97405659;stroke:none;stroke-width:0.167;stroke-miterlimit:4;stroke-dasharray:none;stroke-opacity:1"
         id="circle1575"
         cx="85"
         cy="65.8909"
         r="60" />
    </clipPath>
  </defs>
  <metadata
     id="metadata5">
    <rdf:RDF>
      <cc:Work
         rdf:about="">
        <dc:format>image/svg+xml</dc:format>
        <dc:type
           rdf:resource="http://purl.org/dc/dcmitype/StillImage" />
        <dc:title />
      </cc:Work>
    </rdf:RDF>
  </metadata>
  <g
     id="g1300">
    <g
       id="g1571"
       clip-path="url(#clipPath1573)"
       inkscape:label="clipped">
      <g
         id="g1211"
         transform="translate(218.53316,-8.9560717)"
         inkscape:label="plot-background">
        <rect
           y="146.07661"
           x="-208.42513"
           height="18.520832"
           width="18.520832"
           id="rect851"
           style="fill:#e3e3e3;fill-opacity:1;stroke:none;stroke-width:0.167;stroke-miterlimit:4;stroke-dasharray:none;stroke-opacity:1" />
        <rect
           y="146.07661"
           x="-189.37512"
           height="18.520832"
           width="18.520832"
           id="rect851-3"
           style="fill:#e3e3e3;fill-opacity:1;stroke:none;stroke-width:0.167;stroke-miterlimit:4;stroke-dasharray:none;stroke-opacity:1" />
        <rect
           y="146.07661"
           x="-170.32512"
           height="18.520832"
           width="18.520832"
           id="rect851-6"
           style="fill:#e3e3e3;fill-opacity:1;stroke:none;stroke-width:0.167;stroke-miterlimit:4;stroke-dasharray:none;stroke-opacity:1" />
        <rect
           y="146.07661"
           x="-151.2751"
           height="18.520832"
           width="18.520832"
           id="rect851-3-7"
           style="fill:#e3e3e3;fill-opacity:1;stroke:none;stroke-width:0.167;stroke-miterlimit:4;stroke-dasharray:none;stroke-opacity:1" />
        <rect
           y="146.07661"
           x="-132.22513"
           height="18.520832"
           width="18.520832"
           id="rect851-5"
           style="fill:#e3e3e3;fill-opacity:1;stroke:none;stroke-width:0.167;stroke-miterlimit:4;stroke-dasharray:none;stroke-opacity:1" />
        <rect
           y="146.07661"
           x="-113.17513"
           height="18.520832"
           width="18.520832"
           id="rect851-3-3"
           style="fill:#e3e3e3;fill-opacity:1;stroke:none;stroke-width:0.167;stroke-miterlimit:4;stroke-dasharray:none;stroke-opacity:1" />
        <rect
           y="146.07661"
           x="-94.125137"
           height="18.520832"
           width="18.520832"
           id="rect851-6-5"
           style="fill:#e3e3e3;fill-opacity:1;stroke:none;stroke-width:0.167;stroke-miterlimit:4;stroke-dasharray:none;stroke-opacity:1" />
        <rect
           y="146.07661"
           x="-75.075111"
           height="18.520832"
           width="18.520832"
           id="rect851-3-7-6"
           style="fill:#e3e3e3;fill-opacity:1;stroke:none;stroke-width:0.167;stroke-miterlimit:4;stroke-dasharray:none;stroke-opacity:1" />
        <rect
           y="127.02661"
           x="-208.42513"
           height="18.520832"
           width="18.520832"
           id="rect851-2"
           style="fill:#e3e3e3;fill-opacity:1;stroke:none;stroke-width:0.167;stroke-miterlimit:4;stroke-dasharray:none;stroke-opacity:1" />
        <rect
           y="127.02661"
           x="-189.37512"
           height="18.520832"
           width="18.520832"
           id="rect851-3-9"
           style="fill:#e3e3e3;fill-opacity:1;stroke:none;stroke-width:0.167;stroke-miterlimit:4;stroke-dasharray:none;stroke-opacity:1" />
        <rect
           y="127.02661"
           x="-170.32512"
           height="18.520832"
           width="18.520832"
           id="rect851-6-1"
           style="fill:#e3e3e3;fill-opacity:1;stroke:none;stroke-width:0.167;stroke-miterlimit:4;stroke-dasharray:none;stroke-opacity:1" />
        <rect
           y="127.02661"
           x="-151.2751"
           height="18.520832"
           width="18.520832"
           id="rect851-3-7-2"
           style="fill:#e3e3e3;fill-opacity:1;stroke:none;stroke-width:0.167;stroke-miterlimit:4;stroke-dasharray:none;stroke-opacity:1" />
        <rect
           y="127.02661"
           x="-132.22514"
           height="18.520832"
           width="18.520832"
           id="rect851-5-7"
           style="fill:#e3e3e3;fill-opacity:1;stroke:none;stroke-width:0.167;stroke-miterlimit:4;stroke-dasharray:none;stroke-opacity:1" />
        <rect
           y="127.02661"
           x="-113.17516"
           height="18.520832"
           width="18.520832"
           id="rect851-3-3-0"
           style="fill:#e3e3e3;fill-opacity:1;stroke:none;stroke-width:0.167;stroke-miterlimit:4;stroke-dasharray:none;stroke-opacity:1" />
        <rect
           y="127.02661"
           x="-94.125137"
           height="18.520832"
           width="18.520832"
           id="rect851-6-5-9"
           style="fill:#e3e3e3;fill-opacity:1;stroke:none;stroke-width:0.167;stroke-miterlimit:4;stroke-dasharray:none;stroke-opacity:1" />
        <rect
           y="127.02661"
           x="-75.075119"
           height="18.520832"
           width="18.520832"
           id="rect851-3-7-6-3"
           style="fill:#e3e3e3;fill-opacity:1;stroke:none;stroke-width:0.167;stroke-miterlimit:4;stroke-dasharray:none;stroke-opacity:1" />
        <rect
           y="107.97663"
           x="-208.42513"
           height="18.520832"
           width="18.520832"
           id="rect851-60"
           style="fill:#e3e3e3;fill-opacity:1;stroke:none;stroke-width:0.167;stroke-miterlimit:4;stroke-dasharray:none;stroke-opacity:1" />
        <rect
           y="107.97663"
           x="-189.37512"
           height="18.520832"
           width="18.520832"
           id="rect851-3-6"
           style="fill:#e3e3e3;fill-opacity:1;stroke:none;stroke-width:0.167;stroke-miterlimit:4;stroke-dasharray:none;stroke-opacity:1" />
        <rect
           y="107.97663"
           x="-170.32512"
           height="18.520832"
           width="18.520832"
           id="rect851-6-2"
           style="fill:#e3e3e3;fill-opacity:1;stroke:none;stroke-width:0.167;stroke-miterlimit:4;stroke-dasharray:none;stroke-opacity:1" />
        <rect
           y="107.97663"
           x="-151.2751"
           height="18.520832"
           width="18.520832"
           id="rect851-3-7-61"
           style="fill:#e3e3e3;fill-opacity:1;stroke:none;stroke-width:0.167;stroke-miterlimit:4;stroke-dasharray:none;stroke-opacity:1" />
        <rect
           y="107.97663"
           x="-132.22513"
           height="18.520832"
           width="18.520832"
           id="rect851-5-8"
           style="fill:#e3e3e3;fill-opacity:1;stroke:none;stroke-width:0.167;stroke-miterlimit:4;stroke-dasharray:none;stroke-opacity:1" />
        <rect
           y="107.97663"
           x="-113.17515"
           height="18.520832"
           width="18.520832"
           id="rect851-3-3-7"
           style="fill:#e3e3e3;fill-opacity:1;stroke:none;stroke-width:0.167;stroke-miterlimit:4;stroke-dasharray:none;stroke-opacity:1" />
        <rect
           y="107.97663"
           x="-94.12513"
           height="18.520832"
           width="18.520832"
           id="rect851-6-5-92"
           style="fill:#e3e3e3;fill-opacity:1;stroke:none;stroke-width:0.167;stroke-miterlimit:4;stroke-dasharray:none;stroke-opacity:1" />
        <rect
           y="107.97663"
           x="-75.075111"
           height="18.520832"
           width="18.520832"
           id="rect851-3-7-6-0"
           style="fill:#e3e3e3;fill-opacity:1;stroke:none;stroke-width:0.167;stroke-miterlimit:4;stroke-dasharray:none;stroke-opacity:1" />
        <rect
           y="88.926613"
           x="-208.42513"
           height="18.520832"
           width="18.520832"
           id="rect851-2-2"
           style="fill:#e3e3e3;fill-opacity:1;stroke:none;stroke-width:0.167;stroke-miterlimit:4;stroke-dasharray:none;stroke-opacity:1" />
        <rect
           y="88.926613"
           x="-189.37512"
           height="18.520832"
           width="18.520832"
           id="rect851-3-9-3"
           style="fill:#e3e3e3;fill-opacity:1;stroke:none;stroke-width:0.167;stroke-miterlimit:4;stroke-dasharray:none;stroke-opacity:1" />
        <rect
           y="88.926613"
           x="-170.32512"
           height="18.520832"
           width="18.520832"
           id="rect851-6-1-7"
           style="fill:#e3e3e3;fill-opacity:1;stroke:none;stroke-width:0.167;stroke-miterlimit:4;stroke-dasharray:none;stroke-opacity:1" />
        <rect
           y="88.926613"
           x="-151.2751"
           height="18.520832"
           width="18.520832"
           id="rect851-3-7-2-5"
           style="fill:#e3e3e3;fill-opacity:1;stroke:none;stroke-width:0.167;stroke-miterlimit:4;stroke-dasharray:none;stroke-opacity:1" />
        <rect
           y="88.926613"
           x="-132.22514"
           height="18.520832"
           width="18.520832"
           id="rect851-5-7-9"
           style="fill:#e3e3e3;fill-opacity:1;stroke:none;stroke-width:0.167;stroke-miterlimit:4;stroke-dasharray:none;stroke-opacity:1" />
        <rect
           y="88.926613"
           x="-113.17516"
           height="18.520832"
           width="18.520832"
           id="rect851-3-3-0-2"
           style="fill:#e3e3e3;fill-opacity:1;stroke:none;stroke-width:0.167;stroke-miterlimit:4;stroke-dasharray:none;stroke-opacity:1" />
        <rect
           y="88.926613"
           x="-94.12513"
           height="18.520832"
           width="18.520832"
           id="rect851-6-5-9-2"
           style="fill:#e3e3e3;fill-opacity:1;stroke:none;stroke-width:0.167;stroke-miterlimit:4;stroke-dasharray:none;stroke-opacity:1" />
        <rect
           y="88.926613"
           x="-75.075111"
           height="18.520832"
           width="18.520832"
           id="rect851-3-7-6-3-8"
           style="fill:#e3e3e3;fill-opacity:1;stroke:none;stroke-width:0.167;stroke-miterlimit:4;stroke-dasharray:none;stroke-opacity:1" />
        <rect
           y="69.876625"
           x="-208.42513"
           height="18.520832"
           width="18.520832"
           id="rect851-9"
           style="fill:#e3e3e3;fill-opacity:1;stroke:none;stroke-width:0.167;stroke-miterlimit:4;stroke-dasharray:none;stroke-opacity:1" />
        <rect
           y="69.876625"
           x="-189.37512"
           height="18.520832"
           width="18.520832"
           id="rect851-3-73"
           style="fill:#e3e3e3;fill-opacity:1;stroke:none;stroke-width:0.167;stroke-miterlimit:4;stroke-dasharray:none;stroke-opacity:1" />
        <rect
           y="69.876625"
           x="-170.32512"
           height="18.520832"
           width="18.520832"
           id="rect851-6-6"
           style="fill:#e3e3e3;fill-opacity:1;stroke:none;stroke-width:0.167;stroke-miterlimit:4;stroke-dasharray:none;stroke-opacity:1" />
        <rect
           y="69.876625"
           x="-151.2751"
           height="18.520832"
           width="18.520832"
           id="rect851-3-7-1"
           style="fill:#e3e3e3;fill-opacity:1;stroke:none;stroke-width:0.167;stroke-miterlimit:4;stroke-dasharray:none;stroke-opacity:1" />
        <rect
           y="69.876625"
           x="-132.22513"
           height="18.520832"
           width="18.520832"
           id="rect851-5-2"
           style="fill:#e3e3e3;fill-opacity:1;stroke:none;stroke-width:0.167;stroke-miterlimit:4;stroke-dasharray:none;stroke-opacity:1" />
        <rect
           y="69.876625"
           x="-113.17515"
           height="18.520832"
           width="18.520832"
           id="rect851-3-3-9"
           style="fill:#e3e3e3;fill-opacity:1;stroke:none;stroke-width:0.167;stroke-miterlimit:4;stroke-dasharray:none;stroke-opacity:1" />
        <rect
           y="69.876625"
           x="-94.12513"
           height="18.520832"
           width="18.520832"
           id="rect851-6-5-3"
           style="fill:#e3e3e3;fill-opacity:1;stroke:none;stroke-width:0.167;stroke-miterlimit:4;stroke-dasharray:none;stroke-opacity:1" />
        <rect
           y="69.876625"
           x="-75.075111"
           height="18.520832"
           width="18.520832"
           id="rect851-3-7-6-1"
           style="fill:#e3e3e3;fill-opacity:1;stroke:none;stroke-width:0.167;stroke-miterlimit:4;stroke-dasharray:none;stroke-opacity:1" />
        <rect
           y="50.826622"
           x="-208.42513"
           height="18.520832"
           width="18.520832"
           id="rect851-2-9"
           style="fill:#e3e3e3;fill-opacity:1;stroke:none;stroke-width:0.167;stroke-miterlimit:4;stroke-dasharray:none;stroke-opacity:1" />
        <rect
           y="50.826622"
           x="-189.37512"
           height="18.520832"
           width="18.520832"
           id="rect851-3-9-4"
           style="fill:#e3e3e3;fill-opacity:1;stroke:none;stroke-width:0.167;stroke-miterlimit:4;stroke-dasharray:none;stroke-opacity:1" />
        <rect
           y="50.826622"
           x="-170.32512"
           height="18.520832"
           width="18.520832"
           id="rect851-6-1-78"
           style="fill:#e3e3e3;fill-opacity:1;stroke:none;stroke-width:0.167;stroke-miterlimit:4;stroke-dasharray:none;stroke-opacity:1" />
        <rect
           y="50.826622"
           x="-151.2751"
           height="18.520832"
           width="18.520832"
           id="rect851-3-7-2-4"
           style="fill:#e3e3e3;fill-opacity:1;stroke:none;stroke-width:0.167;stroke-miterlimit:4;stroke-dasharray:none;stroke-opacity:1" />
        <rect
           y="50.826622"
           x="-132.22513"
           height="18.520832"
           width="18.520832"
           id="rect851-5-7-5"
           style="fill:#e3e3e3;fill-opacity:1;stroke:none;stroke-width:0.167;stroke-miterlimit:4;stroke-dasharray:none;stroke-opacity:1" />
        <rect
           y="50.826622"
           x="-113.17515"
           height="18.520832"
           width="18.520832"
           id="rect851-3-3-0-0"
           style="fill:#e3e3e3;fill-opacity:1;stroke:none;stroke-width:0.167;stroke-miterlimit:4;stroke-dasharray:none;stroke-opacity:1" />
        <rect
           y="50.826622"
           x="-94.12513"
           height="18.520832"
           width="18.520832"
           id="rect851-6-5-9-3"
           style="fill:#e3e3e3;fill-opacity:1;stroke:none;stroke-width:0.167;stroke-miterlimit:4;stroke-dasharray:none;stroke-opacity:1" />
        <rect
           y="50.826622"
           x="-75.075111"
           height="18.520832"
           width="18.520832"
           id="rect851-3-7-6-3-6"
           style="fill:#e3e3e3;fill-opacity:1;stroke:none;stroke-width:0.167;stroke-miterlimit:4;stroke-dasharray:none;stroke-opacity:1" />
        <rect
           y="31.776638"
           x="-208.42513"
           height="18.520832"
           width="18.520832"
           id="rect851-60-1"
           style="fill:#e3e3e3;fill-opacity:1;stroke:none;stroke-width:0.167;stroke-miterlimit:4;stroke-dasharray:none;stroke-opacity:1" />
        <rect
           y="31.776638"
           x="-189.37512"
           height="18.520832"
           width="18.520832"
           id="rect851-3-6-0"
           style="fill:#e3e3e3;fill-opacity:1;stroke:none;stroke-width:0.167;stroke-miterlimit:4;stroke-dasharray:none;stroke-opacity:1" />
        <rect
           y="31.776638"
           x="-170.32512"
           height="18.520832"
           width="18.520832"
           id="rect851-6-2-6"
           style="fill:#e3e3e3;fill-opacity:1;stroke:none;stroke-width:0.167;stroke-miterlimit:4;stroke-dasharray:none;stroke-opacity:1" />
        <rect
           y="31.776638"
           x="-151.2751"
           height="18.520832"
           width="18.520832"
           id="rect851-3-7-61-3"
           style="fill:#e3e3e3;fill-opacity:1;stroke:none;stroke-width:0.167;stroke-miterlimit:4;stroke-dasharray:none;stroke-opacity:1" />
        <rect
           y="31.776638"
           x="-132.22513"
           height="18.520832"
           width="18.520832"
           id="rect851-5-8-2"
           style="fill:#e3e3e3;fill-opacity:1;stroke:none;stroke-width:0.167;stroke-miterlimit:4;stroke-dasharray:none;stroke-opacity:1" />
        <rect
           y="31.776638"
           x="-113.17515"
           height="18.520832"
           width="18.520832"
           id="rect851-3-3-7-0"
           style="fill:#e3e3e3;fill-opacity:1;stroke:none;stroke-width:0.167;stroke-miterlimit:4;stroke-dasharray:none;stroke-opacity:1" />
        <rect
           y="31.776638"
           x="-94.12513"
           height="18.520832"
           width="18.520832"
           id="rect851-6-5-92-6"
           style="fill:#e3e3e3;fill-opacity:1;stroke:none;stroke-width:0.167;stroke-miterlimit:4;stroke-dasharray:none;stroke-opacity:1" />
        <rect
           y="31.776638"
           x="-75.075111"
           height="18.520832"
           width="18.520832"
           id="rect851-3-7-6-0-1"
           style="fill:#e3e3e3;fill-opacity:1;stroke:none;stroke-width:0.167;stroke-miterlimit:4;stroke-dasharray:none;stroke-opacity:1" />
        <rect
           y="12.726624"
           x="-208.42513"
           height="18.520832"
           width="18.520832"
           id="rect851-2-2-5"
           style="fill:#e3e3e3;fill-opacity:1;stroke:none;stroke-width:0.167;stroke-miterlimit:4;stroke-dasharray:none;stroke-opacity:1" />
        <rect
           y="12.726624"
           x="-189.37512"
           height="18.520832"
           width="18.520832"
           id="rect851-3-9-3-5"
           style="fill:#e3e3e3;fill-opacity:1;stroke:none;stroke-width:0.167;stroke-miterlimit:4;stroke-dasharray:none;stroke-opacity:1" />
        <rect
           y="12.726624"
           x="-170.32512"
           height="18.520832"
           width="18.520832"
           id="rect851-6-1-7-4"
           style="fill:#e3e3e3;fill-opacity:1;stroke:none;stroke-width:0.167;stroke-miterlimit:4;stroke-dasharray:none;stroke-opacity:1" />
        <rect
           y="12.726624"
           x="-151.2751"
           height="18.520832"
           width="18.520832"
           id="rect851-3-7-2-5-7"
           style="fill:#e3e3e3;fill-opacity:1;stroke:none;stroke-width:0.167;stroke-miterlimit:4;stroke-dasharray:none;stroke-opacity:1" />
        <rect
           y="12.726624"
           x="-132.22514"
           height="18.520832"
           width="18.520832"
           id="rect851-5-7-9-6"
           style="fill:#e3e3e3;fill-opacity:1;stroke:none;stroke-width:0.167;stroke-miterlimit:4;stroke-dasharray:none;stroke-opacity:1" />
        <rect
           y="12.726624"
           x="-113.17515"
           height="18.520832"
           width="18.520832"
           id="rect851-3-3-0-2-5"
           style="fill:#e3e3e3;fill-opacity:1;stroke:none;stroke-width:0.167;stroke-miterlimit:4;stroke-dasharray:none;stroke-opacity:1" />
        <rect
           y="12.726624"
           x="-94.12513"
           height="18.520832"
           width="18.520832"
           id="rect851-6-5-9-2-6"
           style="fill:#e3e3e3;fill-opacity:1;stroke:none;stroke-width:0.167;stroke-miterlimit:4;stroke-dasharray:none;stroke-opacity:1" />
        <rect
           y="12.726624"
           x="-75.075111"
           height="18.520832"
           width="18.520832"
           id="rect851-3-7-6-3-8-9"
           style="fill:#e3e3e3;fill-opacity:1;stroke:none;stroke-width:0.167;stroke-miterlimit:4;stroke-dasharray:none;stroke-opacity:1" />
      </g>
      <g
         clip-path="none"
         id="g1193"
         transform="translate(-43.019348,1.2822736)"
         inkscape:label="curves">
        <g
           transform="translate(-12.361153,7.3251275)"
           id="g848"
           inkscape:label="group">
          <path
             inkscape:connector-curvature="0"
             style="fill:none;stroke:#06a481;stroke-width:8;stroke-linecap:butt;stroke-linejoin:miter;stroke-miterlimit:4;stroke-dasharray:none;stroke-opacity:1"
             d="m 51.793023,66.438893 c 7.457926,18.374648 23.970456,29.031563 38.946411,26.823273 14.975956,-2.208289 26.328316,-35.444755 46.174186,-39.579215 11.27529,-2.348966 24.98141,0.488452 33.03066,10.140233"
             id="path815-3" />
          <path
             inkscape:connector-curvature="0"
             style="fill:none;stroke:#98c743;stroke-width:8;stroke-linecap:butt;stroke-linejoin:miter;stroke-miterlimit:4;stroke-dasharray:none;stroke-opacity:1"
             d="m 52.901666,51.917319 c 0,0 22.627654,-22.311203 38.642858,-20.446926 9.235066,1.075024 12.733446,14.497332 22.169146,18.001515 6.92743,2.572675 17.08592,-3.414904 26.53953,-4.356273 15.84507,-1.439117 28.94605,5.070891 35.87449,13.635548"
             id="path815" />
          <path
             inkscape:connector-curvature="0"
             style="fill:none;stroke:#ec4758;stroke-width:8;stroke-linecap:butt;stroke-linejoin:miter;stroke-miterlimit:4;stroke-dasharray:none;stroke-opacity:1"
             d="m 52.901666,71.917319 c 0,0 14.860204,-13.570748 23.977714,-13.20688 16.483344,0.657828 24.86553,28.586148 41.3082,27.254974 9.22166,-0.746571 9.17726,-4.657129 20.40657,-18.813256 6.2387,-7.864761 17.92736,-7.374869 25.1924,1.706014"
             id="path815-6" />
        </g>
      </g>
    </g>
    <g
       transform="translate(-55.380704,8.6074009)"
       id="g1042"
       inkscape:label="brush">
      <path
         d="m 187.8214,67.835196 0.69967,-0.57232 -3.54467,-4.333533 -18.65412,15.25834 -0.68334,-0.835429 18.65395,-15.258351 -3.81744,-4.667002 -18.65394,15.258345 5.54683,6.781271 18.65337,-15.257733 0.68334,0.835425 -18.6532,15.257746 1.81524,2.219272 0.69971,-0.572325 c 0.0159,0.01552 0.0315,0.02984 0.0471,0.04688 l 17.24429,-14.105159 c -0.0143,-0.01863 -0.0256,-0.03699 -0.0367,-0.05533 z"
         id="path14"
         style="stroke-width:0.167108"
         inkscape:connector-curvature="0"
         inkscape:label="tip" />
      <path
         d="m 197.80976,90.290188 c -2.91954,-3.569251 -6.5964,-6.909201 -9.0372,-8.854368 -1.56234,-1.245061 -2.46082,-1.752877 -3.46515,-2.98085 -1.00426,-1.227795 -0.30343,-3.899807 1.06877,-5.022994 l -5.3e-4,-8.5e-4 0.86363,-0.706391 c 1.03387,-0.845683 1.44797,-2.146596 1.22689,-3.373393 l -16.54099,13.529819 c 1.15868,0.459142 2.51664,0.31211 3.5497,-0.533651 l 0.86359,-0.706381 5.8e-4,6.26e-4 c 1.37304,-1.123103 4.13096,-1.280234 5.13523,-0.05247 1.00431,1.227795 1.32397,2.21003 2.23461,3.98738 1.4226,2.77799 3.96718,7.044119 6.88669,10.613386 5.78694,7.075039 12.09405,11.489859 14.08627,9.860429 1.99167,-1.62846 -1.08521,-8.684868 -6.87209,-15.760577 z m 2.31334,10.189702 c -0.67423,0.55152 -1.66876,0.45195 -2.22029,-0.22231 -0.55151,-0.674257 -0.45193,-1.66877 0.22232,-2.220307 0.67427,-0.551521 1.66878,-0.451927 2.22028,0.222329 0.55234,0.674532 0.45288,1.668026 -0.22231,2.220288 z"
         id="path10"
         style="stroke:#ffffff;stroke-width:0.167;stroke-miterlimit:4;stroke-dasharray:none;stroke-opacity:1"
         inkscape:connector-curvature="0"
         inkscape:label="handle" />
    </g>
    <g
       aria-label="bqplot"
       id="text899"
       clip-path="none"
       style="font-size:37.1628px;line-height:1.25;font-family:Courier;-inkscape-font-specification:Courier;letter-spacing:0px;word-spacing:0px;fill:#ec4758;stroke-width:0.929069"
       inkscape:label="bqplot-text">
      <path
         d="m 37.821592,156.97309 c 4.6452,0 8.770137,-3.97629 8.770137,-10.92551 0,-6.16882 -2.824281,-10.2566 -8.064067,-10.2566 -2.229696,0 -4.496553,1.26349 -6.317471,2.86144 l 0.111484,-3.64183 v -8.10123 H 28.93997 v 29.58063 h 2.712797 l 0.297292,-2.08105 h 0.148647 c 1.746595,1.59795 3.864806,2.56415 5.722886,2.56415 z m -0.557424,-2.82428 c -1.337818,0 -3.158736,-0.55742 -4.942493,-2.11821 v -10.59106 c 1.932403,-1.82092 3.71616,-2.78712 5.425594,-2.78712 3.827644,0 5.314108,3.01009 5.314108,7.46948 0,5.01682 -2.452665,8.02691 -5.797209,8.02691 z"
         style="font-size:37.1616px;font-family:'Noto Sans CJK HK';-inkscape-font-specification:'Noto Sans CJK HK, Normal'"
         id="path332" />
      <path
         d="m 64.726519,165 h 3.344544 v -28.68876 h -2.675635 l -0.334455,1.93241 h -0.111485 c -1.746595,-1.59795 -3.418867,-2.45267 -5.760047,-2.45267 -4.608039,0 -8.732976,4.08778 -8.732976,10.62822 0,6.72625 3.270221,10.55389 8.324198,10.55389 2.341181,0 4.459392,-1.22633 6.094502,-2.82428 l -0.148646,3.679 z m -5.202624,-10.85119 c -3.567513,0 -5.57424,-2.89861 -5.57424,-7.76677 0,-4.60804 2.564151,-7.72962 5.834371,-7.72962 1.672272,0 3.195898,0.59459 4.942493,2.11821 v 10.59106 c -1.709434,1.85808 -3.344544,2.78712 -5.202624,2.78712 z"
         style="fill:#06a481"
         id="path334" />
      <path
         d="m 74.945921,165 h 3.381705 v -6.83774 l -0.07432,-3.53035 c 1.820918,1.48646 3.753322,2.34118 5.57424,2.34118 4.6452,0 8.770137,-3.97629 8.770137,-10.88835 0,-6.20598 -2.824281,-10.29376 -8.026905,-10.29376 -2.341181,0 -4.608038,1.33782 -6.428957,2.82428 h -0.111484 l -0.297293,-2.30402 h -2.78712 z m 8.324198,-10.85119 c -1.337818,0 -3.121574,-0.55742 -4.942493,-2.11821 v -10.59106 c 1.969565,-1.82092 3.71616,-2.78712 5.425594,-2.78712 3.827644,0 5.314108,3.01009 5.314108,7.46948 0,5.01682 -2.452665,8.02691 -5.797209,8.02691 z"
         style="fill:#98c743"
         id="path336" />
      <path
         d="m 101.55358,156.97309 c 0.92904,0 1.48646,-0.11148 1.96956,-0.29729 l -0.4831,-2.60131 c -0.37161,0.0743 -0.52026,0.0743 -0.70607,0.0743 -0.52026,0 -0.9662,-0.40878 -0.9662,-1.4493 v -25.79015 h -3.381703 v 25.56718 c 0,2.86144 1.040524,4.49655 3.567513,4.49655 z"
         style="font-size:37.1616px;font-family:'Noto Sans CJK HK';-inkscape-font-specification:'Noto Sans CJK HK, Normal'"
         id="path338" />
      <path
         d="m 116.41822,156.97309 c 4.94249,0 9.36472,-3.86481 9.36472,-10.55389 0,-6.72625 -4.42223,-10.62822 -9.36472,-10.62822 -4.94249,0 -9.36472,3.90197 -9.36472,10.62822 0,6.68908 4.42223,10.55389 9.36472,10.55389 z m 0,-2.82428 c -3.49319,0 -5.83437,-3.08441 -5.83437,-7.72961 0,-4.6452 2.34118,-7.80394 5.83437,-7.80394 3.49319,0 5.87153,3.15874 5.87153,7.80394 0,4.6452 -2.37834,7.72961 -5.87153,7.72961 z"
         style="fill:#06a481"
         id="path340" />
      <path
         d="m 137.45165,156.97309 c 1.22633,0 2.56415,-0.37161 3.71616,-0.74323 l -0.66891,-2.52699 c -0.66891,0.26013 -1.59795,0.52026 -2.30402,0.52026 -2.34118,0 -3.12158,-1.41214 -3.12158,-3.90197 V 139.0612 h 5.46276 v -2.74996 h -5.46276 v -5.68572 h -2.82428 l -0.40877,5.68572 -3.15874,0.18581 v 2.56415 h 3.01009 v 11.18564 c 0,4.01345 1.4493,6.72625 5.76005,6.72625 z"
         style="fill:#98c743"
         id="path342" />
    </g>
  </g>
</svg>
