<?xml version="1.0" encoding="UTF-8"?>
<svg width="124.99mm" height="120mm" version="1.1" viewBox="0 0 124.99 120" xmlns="http://www.w3.org/2000/svg" xmlns:cc="http://creativecommons.org/ns#" xmlns:dc="http://purl.org/dc/elements/1.1/" xmlns:rdf="http://www.w3.org/1999/02/22-rdf-syntax-ns#">
 <defs>
  <clipPath id="clipPath1573">
   <circle cx="85" cy="65.891" r="60" fill="#0e0e0e" fill-opacity=".97406"/>
  </clipPath>
 </defs>
 <metadata>
  <rdf:RDF>
   <cc:Work rdf:about="">
    <dc:format>image/svg+xml</dc:format>
    <dc:type rdf:resource="http://purl.org/dc/dcmitype/StillImage"/>
   </cc:Work>
  </rdf:RDF>
 </metadata>
 <g transform="translate(-25 -5.891)" clip-path="url(#clipPath1573)">
  <g transform="translate(218.53,-8.9561)" fill="#4b4b4b">
   <rect x="-208.43" y="146.08" width="18.521" height="18.521"/>
   <rect x="-189.38" y="146.08" width="18.521" height="18.521"/>
   <rect x="-170.33" y="146.08" width="18.521" height="18.521"/>
   <rect x="-151.28" y="146.08" width="18.521" height="18.521"/>
   <rect x="-132.23" y="146.08" width="18.521" height="18.521"/>
   <rect x="-113.18" y="146.08" width="18.521" height="18.521"/>
   <rect x="-94.125" y="146.08" width="18.521" height="18.521"/>
   <rect x="-75.075" y="146.08" width="18.521" height="18.521"/>
   <rect x="-208.43" y="127.03" width="18.521" height="18.521"/>
   <rect x="-189.38" y="127.03" width="18.521" height="18.521"/>
   <rect x="-170.33" y="127.03" width="18.521" height="18.521"/>
   <rect x="-151.28" y="127.03" width="18.521" height="18.521"/>
   <rect x="-132.23" y="127.03" width="18.521" height="18.521"/>
   <rect x="-113.18" y="127.03" width="18.521" height="18.521"/>
   <rect x="-94.125" y="127.03" width="18.521" height="18.521"/>
   <rect x="-75.075" y="127.03" width="18.521" height="18.521"/>
   <rect x="-208.43" y="107.98" width="18.521" height="18.521"/>
   <rect x="-189.38" y="107.98" width="18.521" height="18.521"/>
   <rect x="-170.33" y="107.98" width="18.521" height="18.521"/>
   <rect x="-151.28" y="107.98" width="18.521" height="18.521"/>
   <rect x="-132.23" y="107.98" width="18.521" height="18.521"/>
   <rect x="-113.18" y="107.98" width="18.521" height="18.521"/>
   <rect x="-94.125" y="107.98" width="18.521" height="18.521"/>
   <rect x="-75.075" y="107.98" width="18.521" height="18.521"/>
   <rect x="-208.43" y="88.927" width="18.521" height="18.521"/>
   <rect x="-189.38" y="88.927" width="18.521" height="18.521"/>
   <rect x="-170.33" y="88.927" width="18.521" height="18.521"/>
   <rect x="-151.28" y="88.927" width="18.521" height="18.521"/>
   <rect x="-132.23" y="88.927" width="18.521" height="18.521"/>
   <rect x="-113.18" y="88.927" width="18.521" height="18.521"/>
   <rect x="-94.125" y="88.927" width="18.521" height="18.521"/>
   <rect x="-75.075" y="88.927" width="18.521" height="18.521"/>
   <rect x="-208.43" y="69.877" width="18.521" height="18.521"/>
   <rect x="-189.38" y="69.877" width="18.521" height="18.521"/>
   <rect x="-170.33" y="69.877" width="18.521" height="18.521"/>
   <rect x="-151.28" y="69.877" width="18.521" height="18.521"/>
   <rect x="-132.23" y="69.877" width="18.521" height="18.521"/>
   <rect x="-113.18" y="69.877" width="18.521" height="18.521"/>
   <rect x="-94.125" y="69.877" width="18.521" height="18.521"/>
   <rect x="-75.075" y="69.877" width="18.521" height="18.521"/>
   <rect x="-208.43" y="50.827" width="18.521" height="18.521"/>
   <rect x="-189.38" y="50.827" width="18.521" height="18.521"/>
   <rect x="-170.33" y="50.827" width="18.521" height="18.521"/>
   <rect x="-151.28" y="50.827" width="18.521" height="18.521"/>
   <rect x="-132.23" y="50.827" width="18.521" height="18.521"/>
   <rect x="-113.18" y="50.827" width="18.521" height="18.521"/>
   <rect x="-94.125" y="50.827" width="18.521" height="18.521"/>
   <rect x="-75.075" y="50.827" width="18.521" height="18.521"/>
   <rect x="-208.43" y="31.777" width="18.521" height="18.521"/>
   <rect x="-189.38" y="31.777" width="18.521" height="18.521"/>
   <rect x="-170.33" y="31.777" width="18.521" height="18.521"/>
   <rect x="-151.28" y="31.777" width="18.521" height="18.521"/>
   <rect x="-132.23" y="31.777" width="18.521" height="18.521"/>
   <rect x="-113.18" y="31.777" width="18.521" height="18.521"/>
   <rect x="-94.125" y="31.777" width="18.521" height="18.521"/>
   <rect x="-75.075" y="31.777" width="18.521" height="18.521"/>
   <rect x="-208.43" y="12.727" width="18.521" height="18.521"/>
   <rect x="-189.38" y="12.727" width="18.521" height="18.521"/>
   <rect x="-170.33" y="12.727" width="18.521" height="18.521"/>
   <rect x="-151.28" y="12.727" width="18.521" height="18.521"/>
   <rect x="-132.23" y="12.727" width="18.521" height="18.521"/>
   <rect x="-113.18" y="12.727" width="18.521" height="18.521"/>
   <rect x="-94.125" y="12.727" width="18.521" height="18.521"/>
   <rect x="-75.075" y="12.727" width="18.521" height="18.521"/>
  </g>
  <g transform="translate(-43.019,1.2823)" clip-path="none">
   <g transform="translate(-12.361,7.3251)" fill="none" stroke-width="8">
    <path d="m51.793 66.439c7.4579 18.375 23.97 29.032 38.946 26.823 14.976-2.2083 26.328-35.445 46.174-39.579 11.275-2.349 24.981 0.48845 33.031 10.14" stroke="#06a481"/>
    <path d="m52.902 51.917s22.628-22.311 38.643-20.447c9.2351 1.075 12.733 14.497 22.169 18.002 6.9274 2.5727 17.086-3.4149 26.54-4.3563 15.845-1.4391 28.946 5.0709 35.874 13.636" stroke="#98c743"/>
    <path d="m52.902 71.917s14.86-13.571 23.978-13.207c16.483 0.65783 24.866 28.586 41.308 27.255 9.2217-0.74657 9.1773-4.6571 20.407-18.813 6.2387-7.8648 17.927-7.3749 25.192 1.706" stroke="#ec4758"/>
   </g>
  </g>
 </g>
 <g transform="translate(-80.381 2.7164)" fill="#efefef">
  <path d="m187.82 67.835 0.69967-0.57232-3.5447-4.3335-18.654 15.258-0.68334-0.83543 18.654-15.258-3.8174-4.667-18.654 15.258 5.5468 6.7813 18.653-15.258 0.68334 0.83542-18.653 15.258 1.8152 2.2193 0.69971-0.57232c0.0159 0.01552 0.0315 0.02984 0.0471 0.04688l17.244-14.105c-0.0143-0.01863-0.0256-0.03699-0.0367-0.05533z" stroke-width=".16711"/>
  <path d="m197.81 90.29c-2.9195-3.5693-6.5964-6.9092-9.0372-8.8544-1.5623-1.2451-2.4608-1.7529-3.4652-2.9808-1.0043-1.2278-0.30343-3.8998 1.0688-5.023l-5.3e-4 -8.5e-4 0.86363-0.70639c1.0339-0.84568 1.448-2.1466 1.2269-3.3734l-16.541 13.53c1.1587 0.45914 2.5166 0.31211 3.5497-0.53365l0.86359-0.70638 5.8e-4 6.26e-4c1.373-1.1231 4.131-1.2802 5.1352-0.05247 1.0043 1.2278 1.324 2.21 2.2346 3.9874 1.4226 2.778 3.9672 7.0441 6.8867 10.613 5.7869 7.075 12.094 11.49 14.086 9.8604 1.9917-1.6285-1.0852-8.6849-6.8721-15.761zm2.3133 10.19c-0.67423 0.55152-1.6688 0.45195-2.2203-0.22231-0.55151-0.67426-0.45193-1.6688 0.22232-2.2203 0.67427-0.55152 1.6688-0.45193 2.2203 0.22233 0.55234 0.67453 0.45288 1.668-0.22231 2.2203z" stroke="#fff" stroke-width=".167"/>
 </g>
</svg>
